M48
; DRILL file {KiCad 7.0.10-7.0.10~ubuntu22.04.1} date Tue 02 Apr 2024 05:14:33 PM EDT
; FORMAT={-:-/ absolute / inch / decimal}
; #@! TF.CreationDate,2024-04-02T17:14:33-04:00
; #@! TF.GenerationSoftware,Kicad,Pcbnew,7.0.10-7.0.10~ubuntu22.04.1
; #@! TF.FileFunction,Plated,1,2,PTH
FMAT,2
INCH
; #@! TA.AperFunction,Plated,PTH,ComponentDrill
T1C0.0315
; #@! TA.AperFunction,Plated,PTH,ComponentDrill
T2C0.0394
; #@! TA.AperFunction,Plated,PTH,ComponentDrill
T3C0.0433
; #@! TA.AperFunction,Plated,PTH,ComponentDrill
T4C0.0610
; #@! TA.AperFunction,Plated,PTH,ComponentDrill
T5C0.0827
%
G90
G05
T1
X1.4Y-1.35
X1.4Y-1.75
X1.55Y-1.9
X1.55Y-2.2
X1.6484Y-1.9
X1.6484Y-2.2
X2.15Y-1.35
X2.55Y-1.35
T2
X1.25Y-1.15
X1.25Y-1.25
X1.25Y-1.35
X1.25Y-1.45
X1.8Y-1.4004
X1.8Y-1.6996
X2.65Y-1.15
X2.75Y-1.15
T3
X1.2628Y-2.0
X1.2628Y-2.1
X1.2628Y-2.2
X2.3016Y-1.6496
X2.3016Y-2.0512
T4
X1.5622Y-1.15
X1.8378Y-1.15
X2.1122Y-1.15
X2.3878Y-1.15
X2.95Y-1.15
X3.2256Y-1.15
T5
X2.2016Y-1.8504
X2.8Y-1.5
X2.9Y-2.2008
X3.1992Y-2.2008
M30
