%TF.GenerationSoftware,KiCad,Pcbnew,7.0.10-7.0.10~ubuntu22.04.1*%
%TF.CreationDate,2024-04-02T17:14:39-04:00*%
%TF.ProjectId,ground-test-controller,67726f75-6e64-42d7-9465-73742d636f6e,rev?*%
%TF.SameCoordinates,Original*%
%TF.FileFunction,Copper,L2,Bot*%
%TF.FilePolarity,Positive*%
%FSLAX46Y46*%
G04 Gerber Fmt 4.6, Leading zero omitted, Abs format (unit mm)*
G04 Created by KiCad (PCBNEW 7.0.10-7.0.10~ubuntu22.04.1) date 2024-04-02 17:14:39*
%MOMM*%
%LPD*%
G01*
G04 APERTURE LIST*
G04 Aperture macros list*
%AMRoundRect*
0 Rectangle with rounded corners*
0 $1 Rounding radius*
0 $2 $3 $4 $5 $6 $7 $8 $9 X,Y pos of 4 corners*
0 Add a 4 corners polygon primitive as box body*
4,1,4,$2,$3,$4,$5,$6,$7,$8,$9,$2,$3,0*
0 Add four circle primitives for the rounded corners*
1,1,$1+$1,$2,$3*
1,1,$1+$1,$4,$5*
1,1,$1+$1,$6,$7*
1,1,$1+$1,$8,$9*
0 Add four rect primitives between the rounded corners*
20,1,$1+$1,$2,$3,$4,$5,0*
20,1,$1+$1,$4,$5,$6,$7,0*
20,1,$1+$1,$6,$7,$8,$9,0*
20,1,$1+$1,$8,$9,$2,$3,0*%
G04 Aperture macros list end*
%TA.AperFunction,ComponentPad*%
%ADD10C,4.000000*%
%TD*%
%TA.AperFunction,ComponentPad*%
%ADD11C,2.500000*%
%TD*%
%TA.AperFunction,ComponentPad*%
%ADD12C,1.600000*%
%TD*%
%TA.AperFunction,ComponentPad*%
%ADD13R,1.600000X1.600000*%
%TD*%
%TA.AperFunction,ComponentPad*%
%ADD14O,2.000000X1.905000*%
%TD*%
%TA.AperFunction,ComponentPad*%
%ADD15R,2.000000X1.905000*%
%TD*%
%TA.AperFunction,ComponentPad*%
%ADD16O,1.600000X1.600000*%
%TD*%
%TA.AperFunction,ComponentPad*%
%ADD17O,1.700000X1.700000*%
%TD*%
%TA.AperFunction,ComponentPad*%
%ADD18R,1.700000X1.700000*%
%TD*%
%TA.AperFunction,ComponentPad*%
%ADD19C,3.500000*%
%TD*%
%TA.AperFunction,ComponentPad*%
%ADD20RoundRect,0.250002X-1.499998X-1.499998X1.499998X-1.499998X1.499998X1.499998X-1.499998X1.499998X0*%
%TD*%
%TA.AperFunction,ComponentPad*%
%ADD21C,2.000000*%
%TD*%
%TA.AperFunction,ComponentPad*%
%ADD22R,2.000000X2.000000*%
%TD*%
%TA.AperFunction,ComponentPad*%
%ADD23RoundRect,0.250002X1.499998X1.499998X-1.499998X1.499998X-1.499998X-1.499998X1.499998X-1.499998X0*%
%TD*%
%TA.AperFunction,Conductor*%
%ADD24C,2.540000*%
%TD*%
%TA.AperFunction,Conductor*%
%ADD25C,0.508000*%
%TD*%
%TA.AperFunction,Conductor*%
%ADD26C,0.400000*%
%TD*%
G04 APERTURE END LIST*
D10*
%TO.P,K1,6*%
%TO.N,/VSW*%
X73660000Y-55900000D03*
%TO.P,K1,5*%
%TO.N,/TEST*%
X81260000Y-55900000D03*
%TO.P,K1,4*%
%TO.N,/OUT*%
X71120000Y-38100000D03*
%TO.P,K1,3*%
%TO.N,Net-(K1-Pad3)*%
X55920000Y-47000000D03*
D11*
%TO.P,K1,2*%
%TO.N,/COIL*%
X58460000Y-41900000D03*
%TO.P,K1,1*%
%TO.N,GND*%
X58460000Y-52100000D03*
%TD*%
D12*
%TO.P,C1,2*%
%TO.N,GND*%
X41870000Y-48260000D03*
D13*
%TO.P,C1,1*%
%TO.N,/VSW*%
X39370000Y-48260000D03*
%TD*%
D14*
%TO.P,U1,3,VO*%
%TO.N,+5V*%
X32075000Y-55880000D03*
%TO.P,U1,2,GND*%
%TO.N,GND*%
X32075000Y-53340000D03*
D15*
%TO.P,U1,1,VI*%
%TO.N,/VSW*%
X32075000Y-50800000D03*
%TD*%
D16*
%TO.P,R1,2*%
%TO.N,GND*%
X35560000Y-44450000D03*
D12*
%TO.P,R1,1*%
%TO.N,/ALED*%
X35560000Y-34290000D03*
%TD*%
D17*
%TO.P,SW2,4,A*%
%TO.N,+5V*%
X31750000Y-36830000D03*
%TO.P,SW2,3,K*%
%TO.N,/ALED*%
X31750000Y-34290000D03*
%TO.P,SW2,2,2*%
%TO.N,+5V*%
X31750000Y-31750000D03*
D18*
%TO.P,SW2,1,1*%
%TO.N,/COIL*%
X31750000Y-29210000D03*
%TD*%
D16*
%TO.P,R2,2*%
%TO.N,+BATT*%
X54610000Y-34290000D03*
D12*
%TO.P,R2,1*%
%TO.N,/TLED*%
X64770000Y-34290000D03*
%TD*%
D19*
%TO.P,BT1,2,-*%
%TO.N,GND*%
X60650000Y-29210000D03*
D20*
%TO.P,BT1,1,+*%
%TO.N,+BATT*%
X53650000Y-29210000D03*
%TD*%
D21*
%TO.P,BZ1,2,+*%
%TO.N,GND*%
X45720000Y-35570000D03*
D22*
%TO.P,BZ1,1,-*%
%TO.N,/VSW*%
X45720000Y-43170000D03*
%TD*%
D19*
%TO.P,LA1,2,+*%
%TO.N,/OUT*%
X74930000Y-29210000D03*
D23*
%TO.P,LA1,1,-*%
%TO.N,GND*%
X81930000Y-29210000D03*
%TD*%
D19*
%TO.P,SW1,2,B*%
%TO.N,/VSW*%
X39680000Y-29210000D03*
D23*
%TO.P,SW1,1,A*%
%TO.N,+BATT*%
X46680000Y-29210000D03*
%TD*%
D12*
%TO.P,C2,2*%
%TO.N,GND*%
X41870000Y-55880000D03*
D13*
%TO.P,C2,1*%
%TO.N,+5V*%
X39370000Y-55880000D03*
%TD*%
D17*
%TO.P,D1,2,A*%
%TO.N,/TLED*%
X67310000Y-29210000D03*
D18*
%TO.P,D1,1,K*%
%TO.N,/TEST*%
X69850000Y-29210000D03*
%TD*%
D24*
%TO.N,/VSW*%
X41429999Y-36349999D02*
X43850000Y-38770000D01*
D25*
%TO.N,/TEST*%
X83811376Y-26806000D02*
X85090000Y-28084624D01*
%TO.N,/VSW*%
X45720000Y-43170000D02*
X46896000Y-44346000D01*
X62106000Y-44346000D02*
X63500000Y-45740000D01*
D26*
%TO.N,/COIL*%
X34290000Y-46990000D02*
X33020000Y-45720000D01*
X38100000Y-36500000D02*
X38100000Y-33020000D01*
%TO.N,+5V*%
X30050000Y-33450000D02*
X30050000Y-35130000D01*
D24*
%TO.N,/VSW*%
X39680000Y-29210000D02*
X41429999Y-30959999D01*
X41429999Y-30959999D02*
X41429999Y-36349999D01*
X43850000Y-38770000D02*
X60360000Y-38770000D01*
X60360000Y-38770000D02*
X63500000Y-41910000D01*
X63500000Y-41910000D02*
X63500000Y-45740000D01*
D25*
%TO.N,/TEST*%
X69850000Y-29210000D02*
X72254000Y-26806000D01*
X72254000Y-26806000D02*
X83811376Y-26806000D01*
X85090000Y-28084624D02*
X85090000Y-52070000D01*
X85090000Y-52070000D02*
X81260000Y-55900000D01*
%TO.N,/TLED*%
X64770000Y-34290000D02*
X64770000Y-31750000D01*
X64770000Y-31750000D02*
X67310000Y-29210000D01*
%TO.N,+BATT*%
X54610000Y-34290000D02*
X54610000Y-30170000D01*
X54610000Y-30170000D02*
X53650000Y-29210000D01*
D24*
X46680000Y-29210000D02*
X53650000Y-29210000D01*
D25*
%TO.N,/VSW*%
X46896000Y-44346000D02*
X62106000Y-44346000D01*
D24*
X63500000Y-45740000D02*
X73660000Y-55900000D01*
D25*
%TO.N,+BATT*%
X53650000Y-29520000D02*
X53650000Y-29210000D01*
D24*
%TO.N,/OUT*%
X71120000Y-38100000D02*
X74930000Y-34290000D01*
X74930000Y-34290000D02*
X74930000Y-29210000D01*
D26*
%TO.N,/COIL*%
X58460000Y-41900000D02*
X57200000Y-40640000D01*
X57200000Y-40640000D02*
X43180000Y-40640000D01*
X43180000Y-40640000D02*
X36830000Y-46990000D01*
X36830000Y-46990000D02*
X34290000Y-46990000D01*
X33020000Y-45720000D02*
X33020000Y-41580000D01*
X33020000Y-41580000D02*
X38100000Y-36500000D01*
X38100000Y-33020000D02*
X34290000Y-29210000D01*
X34290000Y-29210000D02*
X31750000Y-29210000D01*
%TO.N,+5V*%
X31750000Y-36830000D02*
X29210000Y-39370000D01*
X29210000Y-39370000D02*
X29210000Y-53015000D01*
X29210000Y-53015000D02*
X32075000Y-55880000D01*
%TO.N,/ALED*%
X31750000Y-34290000D02*
X35560000Y-34290000D01*
%TO.N,+5V*%
X31750000Y-31750000D02*
X30050000Y-33450000D01*
X30050000Y-35130000D02*
X31750000Y-36830000D01*
%TO.N,/VSW*%
X39370000Y-48260000D02*
X39370000Y-45720000D01*
X39370000Y-45720000D02*
X41920000Y-43170000D01*
X41920000Y-43170000D02*
X45720000Y-43170000D01*
X39370000Y-48260000D02*
X34615000Y-48260000D01*
X34615000Y-48260000D02*
X32075000Y-50800000D01*
%TO.N,+5V*%
X39370000Y-55880000D02*
X32075000Y-55880000D01*
%TD*%
%TA.AperFunction,Conductor*%
%TO.N,GND*%
G36*
X87571621Y-25420502D02*
G01*
X87618114Y-25474158D01*
X87629500Y-25526500D01*
X87629500Y-59563500D01*
X87609498Y-59631621D01*
X87555842Y-59678114D01*
X87503500Y-59689500D01*
X26796500Y-59689500D01*
X26728379Y-59669498D01*
X26681886Y-59615842D01*
X26670500Y-59563500D01*
X26670500Y-53058092D01*
X28497598Y-53058092D01*
X28508559Y-53117910D01*
X28509704Y-53125433D01*
X28517033Y-53185794D01*
X28517034Y-53185798D01*
X28520650Y-53195333D01*
X28526771Y-53217289D01*
X28528612Y-53227332D01*
X28553572Y-53282794D01*
X28556483Y-53289821D01*
X28571664Y-53329847D01*
X28578046Y-53346675D01*
X28583513Y-53354595D01*
X28583840Y-53355069D01*
X28595035Y-53374919D01*
X28599223Y-53384222D01*
X28599225Y-53384226D01*
X28636726Y-53432093D01*
X28641234Y-53438220D01*
X28675783Y-53488271D01*
X28675784Y-53488272D01*
X28675785Y-53488273D01*
X28699810Y-53509557D01*
X28721316Y-53528610D01*
X28726857Y-53533827D01*
X30543027Y-55349997D01*
X30577053Y-55412309D01*
X30577386Y-55464295D01*
X30530798Y-55692500D01*
X30520718Y-55942633D01*
X30520718Y-55942640D01*
X30550893Y-56191150D01*
X30550893Y-56191152D01*
X30620538Y-56431597D01*
X30620542Y-56431608D01*
X30727857Y-56657769D01*
X30727858Y-56657771D01*
X30727859Y-56657772D01*
X30800941Y-56763650D01*
X30870069Y-56863798D01*
X30870072Y-56863802D01*
X31042447Y-57043261D01*
X31043484Y-57044341D01*
X31243615Y-57194730D01*
X31243620Y-57194732D01*
X31243622Y-57194734D01*
X31465276Y-57311068D01*
X31465279Y-57311069D01*
X31702734Y-57390343D01*
X31949831Y-57430500D01*
X31949835Y-57430500D01*
X32137490Y-57430500D01*
X32137490Y-57430499D01*
X32324527Y-57415400D01*
X32567591Y-57355490D01*
X32797897Y-57257366D01*
X33009481Y-57123568D01*
X33196862Y-56957563D01*
X33355188Y-56763650D01*
X33419937Y-56651499D01*
X33471318Y-56602507D01*
X33529056Y-56588500D01*
X37935500Y-56588500D01*
X38003621Y-56608502D01*
X38050114Y-56662158D01*
X38061500Y-56714500D01*
X38061500Y-56728649D01*
X38068009Y-56789196D01*
X38068011Y-56789204D01*
X38119110Y-56926202D01*
X38119112Y-56926207D01*
X38206738Y-57043261D01*
X38323792Y-57130887D01*
X38323794Y-57130888D01*
X38323796Y-57130889D01*
X38382875Y-57152924D01*
X38460795Y-57181988D01*
X38460803Y-57181990D01*
X38521350Y-57188499D01*
X38521355Y-57188499D01*
X38521362Y-57188500D01*
X38847867Y-57188500D01*
X38889841Y-57195696D01*
X39015829Y-57240211D01*
X39250800Y-57280500D01*
X39250804Y-57280500D01*
X39429487Y-57280500D01*
X39429497Y-57280500D01*
X39607541Y-57265346D01*
X39838249Y-57205275D01*
X39850618Y-57199683D01*
X39902515Y-57188500D01*
X40218632Y-57188500D01*
X40218638Y-57188500D01*
X40218645Y-57188499D01*
X40218649Y-57188499D01*
X40279196Y-57181990D01*
X40279199Y-57181989D01*
X40279201Y-57181989D01*
X40416204Y-57130889D01*
X40442936Y-57110878D01*
X40533261Y-57043261D01*
X40620887Y-56926207D01*
X40620887Y-56926206D01*
X40620889Y-56926204D01*
X40671989Y-56789201D01*
X40678500Y-56728638D01*
X40678500Y-56408916D01*
X40684023Y-56372020D01*
X40732102Y-56215026D01*
X40744016Y-56176123D01*
X40744017Y-56176118D01*
X40744018Y-56176112D01*
X40774298Y-55939654D01*
X40774298Y-55939646D01*
X40764180Y-55701467D01*
X40739075Y-55584980D01*
X40713954Y-55468419D01*
X40712297Y-55464295D01*
X40687586Y-55402799D01*
X40678500Y-55355819D01*
X40678500Y-55031367D01*
X40678499Y-55031350D01*
X40671990Y-54970803D01*
X40671988Y-54970795D01*
X40620889Y-54833797D01*
X40620887Y-54833792D01*
X40533261Y-54716738D01*
X40416207Y-54629112D01*
X40416202Y-54629110D01*
X40279204Y-54578011D01*
X40279196Y-54578009D01*
X40218649Y-54571500D01*
X40218638Y-54571500D01*
X39892133Y-54571500D01*
X39850158Y-54564303D01*
X39804951Y-54548330D01*
X39724172Y-54519789D01*
X39677176Y-54511731D01*
X39489200Y-54479500D01*
X39310503Y-54479500D01*
X39310490Y-54479500D01*
X39132463Y-54494653D01*
X39132461Y-54494653D01*
X39132459Y-54494654D01*
X39037138Y-54519473D01*
X38901752Y-54554724D01*
X38893121Y-54558625D01*
X38889381Y-54560316D01*
X38837485Y-54571500D01*
X38521350Y-54571500D01*
X38460803Y-54578009D01*
X38460795Y-54578011D01*
X38323797Y-54629110D01*
X38323792Y-54629112D01*
X38206738Y-54716738D01*
X38119112Y-54833792D01*
X38119110Y-54833797D01*
X38068011Y-54970795D01*
X38068009Y-54970803D01*
X38061500Y-55031350D01*
X38061500Y-55045500D01*
X38041498Y-55113621D01*
X37987842Y-55160114D01*
X37935500Y-55171500D01*
X33534689Y-55171500D01*
X33466568Y-55151498D01*
X33426291Y-55105703D01*
X33424684Y-55106632D01*
X33422143Y-55102232D01*
X33422142Y-55102231D01*
X33422141Y-55102228D01*
X33279932Y-54896203D01*
X33279929Y-54896200D01*
X33279927Y-54896197D01*
X33106517Y-54715660D01*
X33071219Y-54689135D01*
X32906385Y-54565270D01*
X32906380Y-54565267D01*
X32906377Y-54565265D01*
X32684723Y-54448931D01*
X32684720Y-54448930D01*
X32447264Y-54369656D01*
X32200178Y-54329501D01*
X32200172Y-54329500D01*
X32200169Y-54329500D01*
X32012519Y-54329500D01*
X32012508Y-54329500D01*
X31825476Y-54344599D01*
X31825474Y-54344599D01*
X31666704Y-54383731D01*
X31595776Y-54380612D01*
X31547457Y-54350487D01*
X29955405Y-52758435D01*
X29921379Y-52696123D01*
X29918500Y-52669340D01*
X29918500Y-39715659D01*
X29938502Y-39647538D01*
X29955400Y-39626569D01*
X31263788Y-38318180D01*
X31326098Y-38284157D01*
X31383812Y-38285132D01*
X31419121Y-38294074D01*
X31502169Y-38315106D01*
X31502174Y-38315107D01*
X31502175Y-38315107D01*
X31502179Y-38315108D01*
X31687933Y-38330500D01*
X31687939Y-38330500D01*
X31812061Y-38330500D01*
X31812067Y-38330500D01*
X31997821Y-38315108D01*
X32238881Y-38254063D01*
X32466607Y-38154173D01*
X32674785Y-38018164D01*
X32857732Y-37849750D01*
X32857733Y-37849748D01*
X32857738Y-37849744D01*
X33010474Y-37653509D01*
X33128828Y-37434810D01*
X33209571Y-37199614D01*
X33250500Y-36954335D01*
X33250500Y-36705665D01*
X33209571Y-36460386D01*
X33128828Y-36225190D01*
X33010474Y-36006491D01*
X32857738Y-35810256D01*
X32857736Y-35810254D01*
X32857732Y-35810249D01*
X32686588Y-35652701D01*
X32650017Y-35591849D01*
X32652150Y-35520884D01*
X32686588Y-35467299D01*
X32857732Y-35309750D01*
X32857733Y-35309748D01*
X32857738Y-35309744D01*
X33010474Y-35113509D01*
X33025030Y-35086612D01*
X33036981Y-35064530D01*
X33086995Y-35014140D01*
X33147794Y-34998500D01*
X34281164Y-34998500D01*
X34349285Y-35018502D01*
X34388456Y-35058437D01*
X34429928Y-35125791D01*
X34429929Y-35125793D01*
X34429931Y-35125795D01*
X34524204Y-35232910D01*
X34578563Y-35294674D01*
X34587436Y-35304755D01*
X34772920Y-35454523D01*
X34981046Y-35570790D01*
X35029509Y-35587913D01*
X35205821Y-35650209D01*
X35205825Y-35650209D01*
X35205829Y-35650211D01*
X35440800Y-35690500D01*
X35440804Y-35690500D01*
X35619487Y-35690500D01*
X35619497Y-35690500D01*
X35797541Y-35675346D01*
X36028249Y-35615275D01*
X36245486Y-35517077D01*
X36443003Y-35383579D01*
X36615118Y-35218621D01*
X36756879Y-35026947D01*
X36864207Y-34814074D01*
X36934016Y-34586123D01*
X36934016Y-34586118D01*
X36934018Y-34586112D01*
X36964298Y-34349654D01*
X36964298Y-34349646D01*
X36954180Y-34111467D01*
X36903953Y-33878416D01*
X36858749Y-33765924D01*
X36815064Y-33657210D01*
X36690069Y-33454205D01*
X36532564Y-33275245D01*
X36347080Y-33125477D01*
X36138954Y-33009210D01*
X36138953Y-33009209D01*
X36138952Y-33009209D01*
X35914178Y-32929790D01*
X35861075Y-32920685D01*
X35679200Y-32889500D01*
X35500503Y-32889500D01*
X35500490Y-32889500D01*
X35322463Y-32904653D01*
X35322461Y-32904653D01*
X35322459Y-32904654D01*
X35210245Y-32933872D01*
X35091754Y-32964724D01*
X35091752Y-32964724D01*
X35091751Y-32964725D01*
X35056004Y-32980884D01*
X34874515Y-33062922D01*
X34874513Y-33062923D01*
X34698021Y-33182211D01*
X34676997Y-33196421D01*
X34504882Y-33361379D01*
X34379856Y-33530425D01*
X34323269Y-33573299D01*
X34278554Y-33581500D01*
X33147794Y-33581500D01*
X33079673Y-33561498D01*
X33036981Y-33515470D01*
X33010477Y-33466496D01*
X33010473Y-33466490D01*
X32931994Y-33365660D01*
X32857738Y-33270256D01*
X32857736Y-33270254D01*
X32857732Y-33270249D01*
X32686588Y-33112701D01*
X32650017Y-33051849D01*
X32652150Y-32980884D01*
X32686588Y-32927299D01*
X32857732Y-32769750D01*
X32857733Y-32769748D01*
X32857738Y-32769744D01*
X33010474Y-32573509D01*
X33128828Y-32354810D01*
X33209571Y-32119614D01*
X33250500Y-31874335D01*
X33250500Y-31625665D01*
X33209571Y-31380386D01*
X33128828Y-31145190D01*
X33010474Y-30926491D01*
X32857738Y-30730256D01*
X32832700Y-30707207D01*
X32796130Y-30646355D01*
X32798265Y-30575390D01*
X32838427Y-30516845D01*
X32842530Y-30513639D01*
X32846207Y-30510887D01*
X32963261Y-30423261D01*
X33024337Y-30341673D01*
X33050887Y-30306207D01*
X33050887Y-30306206D01*
X33050889Y-30306204D01*
X33101989Y-30169201D01*
X33102616Y-30163376D01*
X33108499Y-30108649D01*
X33108500Y-30108632D01*
X33108500Y-30044500D01*
X33128502Y-29976379D01*
X33182158Y-29929886D01*
X33234500Y-29918500D01*
X33944340Y-29918500D01*
X34012461Y-29938502D01*
X34033435Y-29955405D01*
X37354595Y-33276565D01*
X37388621Y-33338877D01*
X37391500Y-33365660D01*
X37391500Y-36154339D01*
X37371498Y-36222460D01*
X37354595Y-36243434D01*
X32536856Y-41061172D01*
X32531316Y-41066388D01*
X32485784Y-41106726D01*
X32451237Y-41156774D01*
X32446731Y-41162898D01*
X32409228Y-41210769D01*
X32409222Y-41210779D01*
X32405035Y-41220080D01*
X32393846Y-41239921D01*
X32388045Y-41248326D01*
X32366482Y-41305183D01*
X32363570Y-41312211D01*
X32338613Y-41367665D01*
X32338609Y-41367678D01*
X32336770Y-41377711D01*
X32330651Y-41399661D01*
X32327034Y-41409199D01*
X32319705Y-41469554D01*
X32318561Y-41477071D01*
X32307598Y-41536906D01*
X32311270Y-41597608D01*
X32311500Y-41605216D01*
X32311500Y-45694782D01*
X32311269Y-45702390D01*
X32307598Y-45763093D01*
X32312369Y-45789131D01*
X32318559Y-45822910D01*
X32319704Y-45830433D01*
X32327033Y-45890794D01*
X32327034Y-45890798D01*
X32330650Y-45900333D01*
X32336771Y-45922289D01*
X32338612Y-45932332D01*
X32363572Y-45987794D01*
X32366483Y-45994821D01*
X32380393Y-46031497D01*
X32388046Y-46051675D01*
X32393840Y-46060069D01*
X32405035Y-46079919D01*
X32409223Y-46089222D01*
X32409225Y-46089226D01*
X32446726Y-46137093D01*
X32451234Y-46143220D01*
X32485783Y-46193271D01*
X32531316Y-46233610D01*
X32536857Y-46238827D01*
X33771171Y-47473141D01*
X33776387Y-47478682D01*
X33816724Y-47524212D01*
X33816727Y-47524215D01*
X33866783Y-47558766D01*
X33872885Y-47563256D01*
X33920774Y-47600775D01*
X33930063Y-47604955D01*
X33949932Y-47616161D01*
X33958321Y-47621951D01*
X33958325Y-47621954D01*
X33988361Y-47633345D01*
X34044962Y-47676203D01*
X34069407Y-47742858D01*
X34053935Y-47812149D01*
X34032776Y-47840252D01*
X32604399Y-49268629D01*
X32542087Y-49302655D01*
X32475406Y-49299050D01*
X32447268Y-49289656D01*
X32200178Y-49249501D01*
X32200172Y-49249500D01*
X32200169Y-49249500D01*
X32012519Y-49249500D01*
X32012508Y-49249500D01*
X31825477Y-49264599D01*
X31582404Y-49324511D01*
X31573771Y-49328190D01*
X31572064Y-49328917D01*
X31522676Y-49339000D01*
X31026350Y-49339000D01*
X30965803Y-49345509D01*
X30965795Y-49345511D01*
X30828797Y-49396610D01*
X30828792Y-49396612D01*
X30711738Y-49484238D01*
X30624112Y-49601292D01*
X30624110Y-49601297D01*
X30573011Y-49738295D01*
X30573009Y-49738303D01*
X30566500Y-49798850D01*
X30566500Y-50424887D01*
X30563954Y-50450090D01*
X30530798Y-50612500D01*
X30520718Y-50862633D01*
X30520718Y-50862640D01*
X30550893Y-51111149D01*
X30561525Y-51147854D01*
X30566500Y-51182910D01*
X30566500Y-51801149D01*
X30573009Y-51861696D01*
X30573011Y-51861704D01*
X30624110Y-51998702D01*
X30624112Y-51998707D01*
X30711738Y-52115761D01*
X30828792Y-52203387D01*
X30828794Y-52203388D01*
X30828796Y-52203389D01*
X30887875Y-52225424D01*
X30965795Y-52254488D01*
X30965803Y-52254490D01*
X31026350Y-52260999D01*
X31026355Y-52260999D01*
X31026362Y-52261000D01*
X31534455Y-52261000D01*
X31574355Y-52267484D01*
X31702734Y-52310343D01*
X31949831Y-52350500D01*
X31949835Y-52350500D01*
X32137490Y-52350500D01*
X32137490Y-52350499D01*
X32324527Y-52335400D01*
X32567591Y-52275490D01*
X32577935Y-52271082D01*
X32627324Y-52261000D01*
X33123632Y-52261000D01*
X33123638Y-52261000D01*
X33123645Y-52260999D01*
X33123649Y-52260999D01*
X33184196Y-52254490D01*
X33184199Y-52254489D01*
X33184201Y-52254489D01*
X33321204Y-52203389D01*
X33395333Y-52147897D01*
X33438261Y-52115761D01*
X33525887Y-51998707D01*
X33525887Y-51998706D01*
X33525889Y-51998704D01*
X33576989Y-51861701D01*
X33583500Y-51801138D01*
X33583500Y-51175111D01*
X33586046Y-51149908D01*
X33619202Y-50987500D01*
X33629282Y-50737365D01*
X33599107Y-50488851D01*
X33588474Y-50452139D01*
X33583500Y-50417086D01*
X33583500Y-50345660D01*
X33603502Y-50277539D01*
X33620405Y-50256565D01*
X34871566Y-49005405D01*
X34933878Y-48971379D01*
X34960661Y-48968500D01*
X37935500Y-48968500D01*
X38003621Y-48988502D01*
X38050114Y-49042158D01*
X38061500Y-49094500D01*
X38061500Y-49108649D01*
X38068009Y-49169196D01*
X38068011Y-49169204D01*
X38119110Y-49306202D01*
X38119112Y-49306207D01*
X38206738Y-49423261D01*
X38323792Y-49510887D01*
X38323794Y-49510888D01*
X38323796Y-49510889D01*
X38382875Y-49532924D01*
X38460795Y-49561988D01*
X38460803Y-49561990D01*
X38521350Y-49568499D01*
X38521355Y-49568499D01*
X38521362Y-49568500D01*
X38847867Y-49568500D01*
X38889841Y-49575696D01*
X39015829Y-49620211D01*
X39250800Y-49660500D01*
X39250804Y-49660500D01*
X39429487Y-49660500D01*
X39429497Y-49660500D01*
X39607541Y-49645346D01*
X39838249Y-49585275D01*
X39850618Y-49579683D01*
X39902515Y-49568500D01*
X40218632Y-49568500D01*
X40218638Y-49568500D01*
X40218645Y-49568499D01*
X40218649Y-49568499D01*
X40279196Y-49561990D01*
X40279199Y-49561989D01*
X40279201Y-49561989D01*
X40416204Y-49510889D01*
X40419396Y-49508500D01*
X40533261Y-49423261D01*
X40620887Y-49306207D01*
X40620887Y-49306206D01*
X40620889Y-49306204D01*
X40671989Y-49169201D01*
X40678500Y-49108638D01*
X40678500Y-48788916D01*
X40684023Y-48752020D01*
X40693652Y-48720578D01*
X40744016Y-48556123D01*
X40744017Y-48556118D01*
X40744018Y-48556112D01*
X40774298Y-48319654D01*
X40774298Y-48319646D01*
X40764180Y-48081467D01*
X40754667Y-48037328D01*
X40713954Y-47848419D01*
X40710672Y-47840252D01*
X40687586Y-47782799D01*
X40678500Y-47735819D01*
X40678500Y-47411367D01*
X40678499Y-47411350D01*
X40671990Y-47350803D01*
X40671988Y-47350795D01*
X40620889Y-47213797D01*
X40620887Y-47213792D01*
X40533261Y-47096738D01*
X40416207Y-47009112D01*
X40416202Y-47009110D01*
X40279204Y-46958011D01*
X40279196Y-46958009D01*
X40218649Y-46951500D01*
X40218638Y-46951500D01*
X40204500Y-46951500D01*
X40136379Y-46931498D01*
X40089886Y-46877842D01*
X40078500Y-46825500D01*
X40078500Y-46065660D01*
X40098502Y-45997539D01*
X40115405Y-45976565D01*
X42176565Y-43915405D01*
X42238877Y-43881379D01*
X42265660Y-43878500D01*
X44085500Y-43878500D01*
X44153621Y-43898502D01*
X44200114Y-43952158D01*
X44211500Y-44004500D01*
X44211500Y-44218649D01*
X44218009Y-44279196D01*
X44218011Y-44279204D01*
X44269110Y-44416202D01*
X44269112Y-44416207D01*
X44356738Y-44533261D01*
X44473792Y-44620887D01*
X44473794Y-44620888D01*
X44473796Y-44620889D01*
X44532875Y-44642924D01*
X44610795Y-44671988D01*
X44610803Y-44671990D01*
X44671350Y-44678499D01*
X44671355Y-44678499D01*
X44671362Y-44678500D01*
X46097972Y-44678500D01*
X46166093Y-44698502D01*
X46187067Y-44715405D01*
X46311058Y-44839396D01*
X46323031Y-44853250D01*
X46337602Y-44872822D01*
X46376168Y-44905182D01*
X46384261Y-44912599D01*
X46388235Y-44916573D01*
X46412952Y-44936117D01*
X46415767Y-44938409D01*
X46474147Y-44987396D01*
X46474149Y-44987397D01*
X46480279Y-44991429D01*
X46480244Y-44991480D01*
X46486697Y-44995591D01*
X46486729Y-44995540D01*
X46492973Y-44999391D01*
X46492977Y-44999393D01*
X46492980Y-44999395D01*
X46562045Y-45031600D01*
X46565344Y-45033198D01*
X46633430Y-45067392D01*
X46633434Y-45067394D01*
X46633438Y-45067395D01*
X46640333Y-45069905D01*
X46640311Y-45069963D01*
X46647537Y-45072474D01*
X46647557Y-45072416D01*
X46654526Y-45074725D01*
X46729161Y-45090135D01*
X46732701Y-45090920D01*
X46806872Y-45108499D01*
X46806873Y-45108499D01*
X46806877Y-45108500D01*
X46806881Y-45108500D01*
X46814166Y-45109352D01*
X46814158Y-45109412D01*
X46821773Y-45110190D01*
X46821779Y-45110129D01*
X46829083Y-45110767D01*
X46829091Y-45110769D01*
X46905254Y-45108552D01*
X46908918Y-45108500D01*
X53961398Y-45108500D01*
X54029519Y-45128502D01*
X54076012Y-45182158D01*
X54086116Y-45252432D01*
X54058483Y-45314816D01*
X53886562Y-45522631D01*
X53717443Y-45789121D01*
X53717436Y-45789135D01*
X53583044Y-46074732D01*
X53583039Y-46074745D01*
X53485507Y-46374919D01*
X53485504Y-46374932D01*
X53426359Y-46684975D01*
X53426357Y-46684992D01*
X53406540Y-46999993D01*
X53406540Y-47000006D01*
X53426357Y-47315007D01*
X53426359Y-47315024D01*
X53485504Y-47625067D01*
X53485507Y-47625080D01*
X53583039Y-47925254D01*
X53583044Y-47925266D01*
X53717438Y-48210869D01*
X53717440Y-48210872D01*
X53717443Y-48210878D01*
X53886562Y-48477368D01*
X54087763Y-48720578D01*
X54087766Y-48720580D01*
X54087767Y-48720582D01*
X54160535Y-48788916D01*
X54317860Y-48936654D01*
X54554591Y-49108649D01*
X54573221Y-49122184D01*
X54849821Y-49274247D01*
X55143298Y-49390443D01*
X55449025Y-49468940D01*
X55449033Y-49468941D01*
X55449032Y-49468941D01*
X55613129Y-49489670D01*
X55762179Y-49508500D01*
X55762183Y-49508500D01*
X56077817Y-49508500D01*
X56077821Y-49508500D01*
X56390975Y-49468940D01*
X56696702Y-49390443D01*
X56990179Y-49274247D01*
X57266779Y-49122184D01*
X57522140Y-48936654D01*
X57752233Y-48720582D01*
X57953432Y-48477375D01*
X57953434Y-48477370D01*
X57953437Y-48477368D01*
X58122556Y-48210878D01*
X58122562Y-48210869D01*
X58256956Y-47925266D01*
X58354495Y-47625072D01*
X58413641Y-47315020D01*
X58413642Y-47315007D01*
X58433460Y-47000006D01*
X58433460Y-46999993D01*
X58413642Y-46684992D01*
X58413640Y-46684975D01*
X58354495Y-46374928D01*
X58295471Y-46193271D01*
X58256960Y-46074745D01*
X58256955Y-46074732D01*
X58246105Y-46051674D01*
X58122562Y-45789131D01*
X58106038Y-45763093D01*
X57953437Y-45522631D01*
X57781517Y-45314816D01*
X57753507Y-45249578D01*
X57765214Y-45179553D01*
X57812921Y-45126974D01*
X57878602Y-45108500D01*
X61595500Y-45108500D01*
X61663621Y-45128502D01*
X61710114Y-45182158D01*
X61721500Y-45234500D01*
X61721500Y-45704390D01*
X61721412Y-45709100D01*
X61717761Y-45806687D01*
X61728692Y-45903713D01*
X61729132Y-45908401D01*
X61736433Y-46005814D01*
X61742294Y-46031497D01*
X61744658Y-46045415D01*
X61747606Y-46071572D01*
X61772878Y-46165887D01*
X61774012Y-46170460D01*
X61795747Y-46265691D01*
X61805368Y-46290203D01*
X61809784Y-46303622D01*
X61816598Y-46329051D01*
X61816601Y-46329059D01*
X61855641Y-46418542D01*
X61857443Y-46422892D01*
X61893131Y-46513819D01*
X61893134Y-46513826D01*
X61900560Y-46526689D01*
X61906292Y-46536617D01*
X61912659Y-46549229D01*
X61923190Y-46573366D01*
X61975161Y-46656077D01*
X61977593Y-46660114D01*
X62026412Y-46744672D01*
X62026416Y-46744678D01*
X62042824Y-46765252D01*
X62050998Y-46776772D01*
X62065010Y-46799071D01*
X62065013Y-46799074D01*
X62065017Y-46799080D01*
X62128710Y-46873092D01*
X62131716Y-46876719D01*
X62192614Y-46953082D01*
X62264200Y-47019503D01*
X62267594Y-47022773D01*
X71112988Y-55868166D01*
X71147014Y-55930478D01*
X71149644Y-55949350D01*
X71166357Y-56215003D01*
X71166360Y-56215026D01*
X71225504Y-56525067D01*
X71225507Y-56525080D01*
X71323039Y-56825254D01*
X71323044Y-56825267D01*
X71370543Y-56926207D01*
X71457438Y-57110869D01*
X71457440Y-57110872D01*
X71457443Y-57110878D01*
X71626562Y-57377368D01*
X71827763Y-57620578D01*
X71827766Y-57620580D01*
X71827767Y-57620582D01*
X72057860Y-57836654D01*
X72313221Y-58022184D01*
X72589821Y-58174247D01*
X72883298Y-58290443D01*
X73189025Y-58368940D01*
X73189033Y-58368941D01*
X73189032Y-58368941D01*
X73353129Y-58389670D01*
X73502179Y-58408500D01*
X73502183Y-58408500D01*
X73817817Y-58408500D01*
X73817821Y-58408500D01*
X74130975Y-58368940D01*
X74436702Y-58290443D01*
X74730179Y-58174247D01*
X75006779Y-58022184D01*
X75262140Y-57836654D01*
X75492233Y-57620582D01*
X75693432Y-57377375D01*
X75693434Y-57377370D01*
X75693437Y-57377368D01*
X75854505Y-57123565D01*
X75862562Y-57110869D01*
X75996956Y-56825266D01*
X76094495Y-56525072D01*
X76153641Y-56215020D01*
X76156088Y-56176123D01*
X76173460Y-55900006D01*
X76173460Y-55899993D01*
X76153642Y-55584992D01*
X76153640Y-55584975D01*
X76094495Y-55274928D01*
X76039812Y-55106632D01*
X75996960Y-54974745D01*
X75996955Y-54974732D01*
X75930636Y-54833797D01*
X75862562Y-54689131D01*
X75824473Y-54629112D01*
X75693437Y-54422631D01*
X75492236Y-54179421D01*
X75262139Y-53963345D01*
X75006781Y-53777817D01*
X74811307Y-53670354D01*
X74730179Y-53625753D01*
X74436702Y-53509557D01*
X74130975Y-53431060D01*
X74130970Y-53431059D01*
X74130965Y-53431058D01*
X74130967Y-53431058D01*
X73817835Y-53391501D01*
X73817824Y-53391500D01*
X73817821Y-53391500D01*
X73817817Y-53391500D01*
X73718868Y-53391500D01*
X73650747Y-53371498D01*
X73629773Y-53354595D01*
X65315405Y-45040226D01*
X65281379Y-44977914D01*
X65278500Y-44951131D01*
X65278500Y-41945626D01*
X65278588Y-41940915D01*
X65279159Y-41925659D01*
X65282240Y-41843314D01*
X65271299Y-41746222D01*
X65270866Y-41741596D01*
X65263567Y-41644185D01*
X65257707Y-41618513D01*
X65255343Y-41604600D01*
X65252395Y-41578429D01*
X65227115Y-41484084D01*
X65225982Y-41479513D01*
X65207756Y-41399661D01*
X65204252Y-41384308D01*
X65194630Y-41359795D01*
X65190215Y-41346376D01*
X65183404Y-41320952D01*
X65144335Y-41231405D01*
X65142551Y-41227100D01*
X65106866Y-41136174D01*
X65093703Y-41113377D01*
X65087335Y-41100761D01*
X65076810Y-41076635D01*
X65076807Y-41076630D01*
X65024834Y-40993918D01*
X65022410Y-40989893D01*
X64973585Y-40905325D01*
X64957168Y-40884739D01*
X64948998Y-40873223D01*
X64934990Y-40850930D01*
X64871279Y-40776896D01*
X64868274Y-40773268D01*
X64807389Y-40696922D01*
X64807385Y-40696918D01*
X64735798Y-40630495D01*
X64732404Y-40627225D01*
X61642773Y-37537594D01*
X61639503Y-37534200D01*
X61573082Y-37462614D01*
X61496719Y-37401716D01*
X61493092Y-37398710D01*
X61419080Y-37335017D01*
X61419074Y-37335013D01*
X61419071Y-37335010D01*
X61419065Y-37335006D01*
X61419062Y-37335004D01*
X61396776Y-37321001D01*
X61385252Y-37312824D01*
X61364678Y-37296416D01*
X61364672Y-37296412D01*
X61280114Y-37247593D01*
X61276093Y-37245170D01*
X61193368Y-37193191D01*
X61193366Y-37193190D01*
X61169229Y-37182659D01*
X61156617Y-37176292D01*
X61146689Y-37170560D01*
X61133826Y-37163134D01*
X61133820Y-37163131D01*
X61133819Y-37163131D01*
X61042892Y-37127443D01*
X61038542Y-37125641D01*
X60949059Y-37086601D01*
X60949051Y-37086598D01*
X60949049Y-37086597D01*
X60949048Y-37086597D01*
X60923622Y-37079784D01*
X60910203Y-37075368D01*
X60885691Y-37065747D01*
X60790460Y-37044012D01*
X60785887Y-37042878D01*
X60691571Y-37017606D01*
X60691574Y-37017606D01*
X60665415Y-37014658D01*
X60651497Y-37012294D01*
X60647098Y-37011290D01*
X60625815Y-37006433D01*
X60616808Y-37005758D01*
X60528401Y-36999132D01*
X60523713Y-36998692D01*
X60426690Y-36987761D01*
X60426687Y-36987761D01*
X60355068Y-36990440D01*
X60329101Y-36991412D01*
X60324391Y-36991500D01*
X44638869Y-36991500D01*
X44570748Y-36971498D01*
X44549774Y-36954595D01*
X43245404Y-35650225D01*
X43211378Y-35587913D01*
X43208499Y-35561130D01*
X43208499Y-30995597D01*
X43208587Y-30990886D01*
X43208676Y-30988500D01*
X43212238Y-30893312D01*
X43201300Y-30796246D01*
X43200867Y-30791620D01*
X43198539Y-30760552D01*
X44421499Y-30760552D01*
X44432112Y-30864424D01*
X44432113Y-30864425D01*
X44487885Y-31032737D01*
X44580970Y-31183651D01*
X44580975Y-31183657D01*
X44706342Y-31309024D01*
X44706348Y-31309029D01*
X44706349Y-31309030D01*
X44747278Y-31334275D01*
X44857262Y-31402114D01*
X44909281Y-31419351D01*
X45025575Y-31457887D01*
X45129448Y-31468500D01*
X45129456Y-31468500D01*
X48230552Y-31468500D01*
X48322882Y-31459066D01*
X48334425Y-31457887D01*
X48502737Y-31402114D01*
X48653651Y-31309030D01*
X48779030Y-31183651D01*
X48862481Y-31048353D01*
X48915266Y-31000875D01*
X48969722Y-30988500D01*
X51360278Y-30988500D01*
X51428399Y-31008502D01*
X51467519Y-31048354D01*
X51550968Y-31183648D01*
X51550975Y-31183657D01*
X51676342Y-31309024D01*
X51676348Y-31309029D01*
X51676349Y-31309030D01*
X51717278Y-31334275D01*
X51827262Y-31402114D01*
X51879281Y-31419351D01*
X51995575Y-31457887D01*
X52099448Y-31468500D01*
X52099456Y-31468500D01*
X53721500Y-31468500D01*
X53789621Y-31488502D01*
X53836114Y-31542158D01*
X53847500Y-31594500D01*
X53847500Y-33048056D01*
X53827498Y-33116177D01*
X53792057Y-33152448D01*
X53726998Y-33196420D01*
X53726997Y-33196421D01*
X53554879Y-33361381D01*
X53413119Y-33553054D01*
X53305794Y-33765924D01*
X53305789Y-33765936D01*
X53235983Y-33993878D01*
X53235981Y-33993887D01*
X53205701Y-34230345D01*
X53205701Y-34230353D01*
X53215819Y-34468532D01*
X53266046Y-34701583D01*
X53311245Y-34814063D01*
X53354936Y-34922790D01*
X53479931Y-35125795D01*
X53479934Y-35125798D01*
X53628563Y-35294674D01*
X53637436Y-35304755D01*
X53822920Y-35454523D01*
X54031046Y-35570790D01*
X54079509Y-35587913D01*
X54255821Y-35650209D01*
X54255825Y-35650209D01*
X54255829Y-35650211D01*
X54490800Y-35690500D01*
X54490804Y-35690500D01*
X54669487Y-35690500D01*
X54669497Y-35690500D01*
X54847541Y-35675346D01*
X55078249Y-35615275D01*
X55295486Y-35517077D01*
X55493003Y-35383579D01*
X55665118Y-35218621D01*
X55806879Y-35026947D01*
X55914207Y-34814074D01*
X55984016Y-34586123D01*
X55984016Y-34586118D01*
X55984018Y-34586112D01*
X56014298Y-34349654D01*
X56014298Y-34349646D01*
X56009230Y-34230353D01*
X63365701Y-34230353D01*
X63375819Y-34468532D01*
X63426046Y-34701583D01*
X63471245Y-34814063D01*
X63514936Y-34922790D01*
X63639931Y-35125795D01*
X63639934Y-35125798D01*
X63788563Y-35294674D01*
X63797436Y-35304755D01*
X63982920Y-35454523D01*
X64191046Y-35570790D01*
X64239509Y-35587913D01*
X64415821Y-35650209D01*
X64415825Y-35650209D01*
X64415829Y-35650211D01*
X64650800Y-35690500D01*
X64650804Y-35690500D01*
X64829487Y-35690500D01*
X64829497Y-35690500D01*
X65007541Y-35675346D01*
X65238249Y-35615275D01*
X65455486Y-35517077D01*
X65653003Y-35383579D01*
X65825118Y-35218621D01*
X65966879Y-35026947D01*
X66074207Y-34814074D01*
X66144016Y-34586123D01*
X66144016Y-34586118D01*
X66144018Y-34586112D01*
X66174298Y-34349654D01*
X66174298Y-34349646D01*
X66164180Y-34111467D01*
X66113953Y-33878416D01*
X66068749Y-33765924D01*
X66025064Y-33657210D01*
X65900069Y-33454205D01*
X65742564Y-33275245D01*
X65579342Y-33143452D01*
X65538910Y-33085097D01*
X65532500Y-33045422D01*
X65532500Y-32118026D01*
X65552502Y-32049905D01*
X65569400Y-32028936D01*
X66884724Y-30713611D01*
X66947034Y-30679588D01*
X67004747Y-30680563D01*
X67062175Y-30695107D01*
X67062179Y-30695108D01*
X67247933Y-30710500D01*
X67247939Y-30710500D01*
X67372061Y-30710500D01*
X67372067Y-30710500D01*
X67557821Y-30695108D01*
X67798881Y-30634063D01*
X68026607Y-30534173D01*
X68234785Y-30398164D01*
X68359009Y-30283807D01*
X68422673Y-30252387D01*
X68493219Y-30260374D01*
X68545214Y-30300999D01*
X68575663Y-30341673D01*
X68626658Y-30409795D01*
X68636740Y-30423262D01*
X68753792Y-30510887D01*
X68753794Y-30510888D01*
X68753796Y-30510889D01*
X68803822Y-30529548D01*
X68890795Y-30561988D01*
X68890803Y-30561990D01*
X68951350Y-30568499D01*
X68951355Y-30568499D01*
X68951362Y-30568500D01*
X69185232Y-30568500D01*
X69235846Y-30579113D01*
X69255712Y-30587827D01*
X69361119Y-30634063D01*
X69361120Y-30634063D01*
X69361122Y-30634064D01*
X69497174Y-30668517D01*
X69602179Y-30695108D01*
X69787933Y-30710500D01*
X69787939Y-30710500D01*
X69912061Y-30710500D01*
X69912067Y-30710500D01*
X70097821Y-30695108D01*
X70338881Y-30634063D01*
X70464154Y-30579113D01*
X70514768Y-30568500D01*
X70748632Y-30568500D01*
X70748638Y-30568500D01*
X70748645Y-30568499D01*
X70748649Y-30568499D01*
X70809196Y-30561990D01*
X70809199Y-30561989D01*
X70809201Y-30561989D01*
X70946204Y-30510889D01*
X71063261Y-30423261D01*
X71124337Y-30341673D01*
X71150887Y-30306207D01*
X71150887Y-30306206D01*
X71150889Y-30306204D01*
X71201989Y-30169201D01*
X71202616Y-30163376D01*
X71208499Y-30108649D01*
X71208500Y-30108632D01*
X71208500Y-29884280D01*
X71223688Y-29824307D01*
X71228828Y-29814810D01*
X71309571Y-29579614D01*
X71350500Y-29334335D01*
X71350500Y-29085665D01*
X71318583Y-28894395D01*
X71327101Y-28823916D01*
X71353767Y-28784568D01*
X72532934Y-27605404D01*
X72595246Y-27571379D01*
X72622029Y-27568500D01*
X73087505Y-27568500D01*
X73155626Y-27588502D01*
X73202119Y-27642158D01*
X73212223Y-27712432D01*
X73182729Y-27777012D01*
X73182237Y-27777577D01*
X73134363Y-27832166D01*
X73134360Y-27832170D01*
X72969883Y-28078329D01*
X72838944Y-28343848D01*
X72838938Y-28343862D01*
X72743778Y-28624194D01*
X72743776Y-28624204D01*
X72686018Y-28914564D01*
X72686016Y-28914578D01*
X72666654Y-29209996D01*
X72666654Y-29210003D01*
X72686016Y-29505421D01*
X72686018Y-29505435D01*
X72743776Y-29795795D01*
X72743778Y-29795805D01*
X72838938Y-30076137D01*
X72838944Y-30076151D01*
X72969882Y-30341670D01*
X73024400Y-30423261D01*
X73130265Y-30581699D01*
X73151480Y-30649451D01*
X73151500Y-30651700D01*
X73151500Y-33501131D01*
X73131498Y-33569252D01*
X73114595Y-33590226D01*
X71150226Y-35554595D01*
X71087914Y-35588621D01*
X71061131Y-35591500D01*
X70962179Y-35591500D01*
X70962176Y-35591500D01*
X70962164Y-35591501D01*
X70649033Y-35631058D01*
X70343301Y-35709556D01*
X70049821Y-35825753D01*
X69773218Y-35977817D01*
X69517861Y-36163345D01*
X69517860Y-36163345D01*
X69287763Y-36379421D01*
X69086562Y-36622631D01*
X68917443Y-36889121D01*
X68917436Y-36889135D01*
X68783044Y-37174732D01*
X68783039Y-37174745D01*
X68685507Y-37474919D01*
X68685504Y-37474932D01*
X68626359Y-37784975D01*
X68626357Y-37784992D01*
X68606540Y-38099993D01*
X68606540Y-38100006D01*
X68626357Y-38415007D01*
X68626359Y-38415024D01*
X68685504Y-38725067D01*
X68685507Y-38725080D01*
X68783039Y-39025254D01*
X68783044Y-39025267D01*
X68815944Y-39095183D01*
X68917438Y-39310869D01*
X68917440Y-39310872D01*
X68917443Y-39310878D01*
X69086562Y-39577368D01*
X69287763Y-39820578D01*
X69517860Y-40036654D01*
X69679589Y-40154157D01*
X69773221Y-40222184D01*
X70049821Y-40374247D01*
X70343298Y-40490443D01*
X70649025Y-40568940D01*
X70649033Y-40568941D01*
X70649032Y-40568941D01*
X70813129Y-40589670D01*
X70962179Y-40608500D01*
X70962183Y-40608500D01*
X71277817Y-40608500D01*
X71277821Y-40608500D01*
X71590975Y-40568940D01*
X71896702Y-40490443D01*
X72190179Y-40374247D01*
X72466779Y-40222184D01*
X72722140Y-40036654D01*
X72952233Y-39820582D01*
X73153432Y-39577375D01*
X73153434Y-39577370D01*
X73153437Y-39577368D01*
X73312384Y-39326907D01*
X73322562Y-39310869D01*
X73456956Y-39025266D01*
X73554495Y-38725072D01*
X73613641Y-38415020D01*
X73630354Y-38149348D01*
X73654593Y-38082621D01*
X73667003Y-38068174D01*
X76162416Y-35572760D01*
X76165755Y-35569543D01*
X76237388Y-35503079D01*
X76298303Y-35426692D01*
X76301252Y-35423132D01*
X76364990Y-35349070D01*
X76379003Y-35326766D01*
X76387164Y-35315264D01*
X76403586Y-35294674D01*
X76452413Y-35210101D01*
X76454816Y-35206112D01*
X76506809Y-35123368D01*
X76517341Y-35099226D01*
X76523701Y-35086626D01*
X76536866Y-35063826D01*
X76572545Y-34972915D01*
X76574336Y-34968591D01*
X76613404Y-34879048D01*
X76620220Y-34853605D01*
X76624630Y-34840203D01*
X76634252Y-34815692D01*
X76655980Y-34720493D01*
X76657113Y-34715924D01*
X76661277Y-34700381D01*
X76682395Y-34621571D01*
X76685343Y-34595401D01*
X76687708Y-34581483D01*
X76693567Y-34555815D01*
X76700865Y-34458407D01*
X76701300Y-34453771D01*
X76712240Y-34356686D01*
X76708587Y-34259083D01*
X76708500Y-34254373D01*
X76708500Y-30651700D01*
X76728502Y-30583579D01*
X76729703Y-30581746D01*
X76890115Y-30341673D01*
X76890115Y-30341672D01*
X76890117Y-30341670D01*
X76966799Y-30186173D01*
X77021059Y-30076145D01*
X77116224Y-29795797D01*
X77173983Y-29505426D01*
X77193346Y-29210000D01*
X77173983Y-28914574D01*
X77116224Y-28624203D01*
X77021059Y-28343855D01*
X76890115Y-28078327D01*
X76785793Y-27922198D01*
X76725639Y-27832170D01*
X76725636Y-27832166D01*
X76725634Y-27832164D01*
X76725633Y-27832162D01*
X76677762Y-27777576D01*
X76647886Y-27713173D01*
X76657572Y-27642840D01*
X76703745Y-27588909D01*
X76771746Y-27568502D01*
X76772495Y-27568500D01*
X83443349Y-27568500D01*
X83511470Y-27588502D01*
X83532444Y-27605405D01*
X84290595Y-28363556D01*
X84324621Y-28425868D01*
X84327500Y-28452651D01*
X84327500Y-51701972D01*
X84307498Y-51770093D01*
X84290595Y-51791067D01*
X82478202Y-53603459D01*
X82415890Y-53637485D01*
X82345074Y-53632420D01*
X82333842Y-53627270D01*
X82333763Y-53627440D01*
X82330179Y-53625753D01*
X82273871Y-53603459D01*
X82036702Y-53509557D01*
X81730975Y-53431060D01*
X81730970Y-53431059D01*
X81730965Y-53431058D01*
X81730967Y-53431058D01*
X81417835Y-53391501D01*
X81417824Y-53391500D01*
X81417821Y-53391500D01*
X81102179Y-53391500D01*
X81102176Y-53391500D01*
X81102164Y-53391501D01*
X80789033Y-53431058D01*
X80789025Y-53431059D01*
X80789025Y-53431060D01*
X80761139Y-53438220D01*
X80483301Y-53509556D01*
X80189821Y-53625753D01*
X79913218Y-53777817D01*
X79657861Y-53963345D01*
X79657860Y-53963345D01*
X79427763Y-54179421D01*
X79226562Y-54422631D01*
X79057443Y-54689121D01*
X79057436Y-54689135D01*
X78923044Y-54974732D01*
X78923039Y-54974745D01*
X78825507Y-55274919D01*
X78825504Y-55274932D01*
X78766359Y-55584975D01*
X78766357Y-55584992D01*
X78746540Y-55899993D01*
X78746540Y-55900006D01*
X78766357Y-56215007D01*
X78766359Y-56215024D01*
X78825504Y-56525067D01*
X78825507Y-56525080D01*
X78923039Y-56825254D01*
X78923044Y-56825267D01*
X78970543Y-56926207D01*
X79057438Y-57110869D01*
X79057440Y-57110872D01*
X79057443Y-57110878D01*
X79226562Y-57377368D01*
X79427763Y-57620578D01*
X79427766Y-57620580D01*
X79427767Y-57620582D01*
X79657860Y-57836654D01*
X79913221Y-58022184D01*
X80189821Y-58174247D01*
X80483298Y-58290443D01*
X80789025Y-58368940D01*
X80789033Y-58368941D01*
X80789032Y-58368941D01*
X80953129Y-58389670D01*
X81102179Y-58408500D01*
X81102183Y-58408500D01*
X81417817Y-58408500D01*
X81417821Y-58408500D01*
X81730975Y-58368940D01*
X82036702Y-58290443D01*
X82330179Y-58174247D01*
X82606779Y-58022184D01*
X82862140Y-57836654D01*
X83092233Y-57620582D01*
X83293432Y-57377375D01*
X83293434Y-57377370D01*
X83293437Y-57377368D01*
X83454505Y-57123565D01*
X83462562Y-57110869D01*
X83596956Y-56825266D01*
X83694495Y-56525072D01*
X83753641Y-56215020D01*
X83756088Y-56176123D01*
X83773460Y-55900006D01*
X83773460Y-55899993D01*
X83753642Y-55584992D01*
X83753640Y-55584975D01*
X83694495Y-55274928D01*
X83639812Y-55106632D01*
X83596960Y-54974745D01*
X83596955Y-54974732D01*
X83527991Y-54828175D01*
X83517085Y-54758021D01*
X83545838Y-54693108D01*
X83552892Y-54685444D01*
X85583401Y-52654935D01*
X85597240Y-52642975D01*
X85616822Y-52628398D01*
X85649177Y-52589836D01*
X85656596Y-52581740D01*
X85660573Y-52577765D01*
X85680149Y-52553004D01*
X85682395Y-52550249D01*
X85731396Y-52491853D01*
X85731396Y-52491851D01*
X85731399Y-52491849D01*
X85735430Y-52485720D01*
X85735483Y-52485755D01*
X85739595Y-52479300D01*
X85739541Y-52479267D01*
X85743389Y-52473027D01*
X85743395Y-52473020D01*
X85775620Y-52403909D01*
X85777172Y-52400704D01*
X85811394Y-52332566D01*
X85811395Y-52332563D01*
X85813907Y-52325663D01*
X85813965Y-52325684D01*
X85816477Y-52318455D01*
X85816417Y-52318435D01*
X85818720Y-52311482D01*
X85818725Y-52311473D01*
X85834147Y-52236776D01*
X85834919Y-52233300D01*
X85852500Y-52159123D01*
X85852500Y-52159115D01*
X85853352Y-52151834D01*
X85853412Y-52151841D01*
X85854189Y-52144229D01*
X85854129Y-52144224D01*
X85854767Y-52136916D01*
X85854769Y-52136909D01*
X85852553Y-52060745D01*
X85852500Y-52057081D01*
X85852500Y-28149351D01*
X85853830Y-28131091D01*
X85856363Y-28113796D01*
X85857366Y-28106951D01*
X85852980Y-28056821D01*
X85852500Y-28045838D01*
X85852500Y-28040212D01*
X85848843Y-28008931D01*
X85848470Y-28005282D01*
X85847723Y-27996739D01*
X85841830Y-27929383D01*
X85841828Y-27929379D01*
X85840346Y-27922198D01*
X85840407Y-27922185D01*
X85838751Y-27914715D01*
X85838692Y-27914730D01*
X85836998Y-27907590D01*
X85836998Y-27907582D01*
X85810927Y-27835954D01*
X85809742Y-27832547D01*
X85785765Y-27760183D01*
X85785764Y-27760182D01*
X85785764Y-27760180D01*
X85782665Y-27753535D01*
X85782720Y-27753509D01*
X85779380Y-27746609D01*
X85779324Y-27746638D01*
X85776030Y-27740078D01*
X85753869Y-27706385D01*
X85734148Y-27676401D01*
X85732232Y-27673395D01*
X85692188Y-27608474D01*
X85692185Y-27608471D01*
X85687642Y-27602726D01*
X85687690Y-27602687D01*
X85682845Y-27596740D01*
X85682799Y-27596780D01*
X85678086Y-27591162D01*
X85622640Y-27538852D01*
X85620012Y-27536298D01*
X84396318Y-26312604D01*
X84384346Y-26298752D01*
X84369774Y-26279178D01*
X84362838Y-26273358D01*
X84331211Y-26246819D01*
X84323109Y-26239394D01*
X84319147Y-26235432D01*
X84319143Y-26235429D01*
X84319141Y-26235427D01*
X84294438Y-26215894D01*
X84291598Y-26213581D01*
X84233231Y-26164605D01*
X84227104Y-26160576D01*
X84227137Y-26160524D01*
X84220679Y-26156410D01*
X84220648Y-26156461D01*
X84214395Y-26152604D01*
X84145334Y-26120400D01*
X84142037Y-26118804D01*
X84073945Y-26084607D01*
X84067047Y-26082097D01*
X84067067Y-26082039D01*
X84059835Y-26079525D01*
X84059816Y-26079583D01*
X84052853Y-26077275D01*
X83978241Y-26061869D01*
X83974666Y-26061076D01*
X83900501Y-26043500D01*
X83893209Y-26042648D01*
X83893216Y-26042587D01*
X83885602Y-26041809D01*
X83885597Y-26041871D01*
X83878285Y-26041231D01*
X83816798Y-26043020D01*
X83802122Y-26043447D01*
X83798458Y-26043500D01*
X72318727Y-26043500D01*
X72300467Y-26042170D01*
X72276328Y-26038634D01*
X72276320Y-26038634D01*
X72235912Y-26042170D01*
X72226196Y-26043020D01*
X72215215Y-26043500D01*
X72209588Y-26043500D01*
X72179358Y-26047032D01*
X72178286Y-26047158D01*
X72174646Y-26047529D01*
X72098764Y-26054168D01*
X72091578Y-26055653D01*
X72091565Y-26055594D01*
X72084081Y-26057253D01*
X72084095Y-26057311D01*
X72076954Y-26059003D01*
X72005368Y-26085058D01*
X72001908Y-26086260D01*
X71929562Y-26110233D01*
X71922913Y-26113334D01*
X71922888Y-26113280D01*
X71915987Y-26116621D01*
X71916014Y-26116675D01*
X71909460Y-26119966D01*
X71845797Y-26161837D01*
X71842711Y-26163803D01*
X71777850Y-26203811D01*
X71772097Y-26208361D01*
X71772060Y-26208314D01*
X71766122Y-26213150D01*
X71766161Y-26213196D01*
X71760540Y-26217913D01*
X71708228Y-26273358D01*
X71705676Y-26275984D01*
X70275275Y-27706385D01*
X70212963Y-27740411D01*
X70155249Y-27739434D01*
X70097828Y-27724893D01*
X70097823Y-27724892D01*
X70097821Y-27724892D01*
X69981140Y-27715223D01*
X69912070Y-27709500D01*
X69912067Y-27709500D01*
X69787933Y-27709500D01*
X69787929Y-27709500D01*
X69695835Y-27717131D01*
X69602179Y-27724892D01*
X69602177Y-27724892D01*
X69602171Y-27724893D01*
X69361122Y-27785935D01*
X69361115Y-27785938D01*
X69235846Y-27840887D01*
X69185232Y-27851500D01*
X68951350Y-27851500D01*
X68890803Y-27858009D01*
X68890795Y-27858011D01*
X68753797Y-27909110D01*
X68753792Y-27909112D01*
X68636738Y-27996739D01*
X68545213Y-28119000D01*
X68488377Y-28161546D01*
X68417562Y-28166610D01*
X68359009Y-28136191D01*
X68234785Y-28021835D01*
X68026606Y-27885826D01*
X68026607Y-27885826D01*
X67798884Y-27785938D01*
X67798877Y-27785935D01*
X67557828Y-27724893D01*
X67557823Y-27724892D01*
X67557821Y-27724892D01*
X67441140Y-27715223D01*
X67372070Y-27709500D01*
X67372067Y-27709500D01*
X67247933Y-27709500D01*
X67247929Y-27709500D01*
X67155835Y-27717131D01*
X67062179Y-27724892D01*
X67062177Y-27724892D01*
X67062171Y-27724893D01*
X66821122Y-27785935D01*
X66821115Y-27785938D01*
X66593393Y-27885826D01*
X66385214Y-28021835D01*
X66202267Y-28190249D01*
X66049526Y-28386490D01*
X66049525Y-28386491D01*
X65931171Y-28605190D01*
X65931170Y-28605192D01*
X65850430Y-28840381D01*
X65850429Y-28840386D01*
X65809500Y-29085665D01*
X65809500Y-29334335D01*
X65838051Y-29505435D01*
X65841416Y-29525598D01*
X65832898Y-29596081D01*
X65806229Y-29635431D01*
X64276602Y-31165058D01*
X64262753Y-31177028D01*
X64243179Y-31191601D01*
X64243176Y-31191603D01*
X64210820Y-31230163D01*
X64203409Y-31238252D01*
X64199427Y-31242234D01*
X64199421Y-31242241D01*
X64179884Y-31266948D01*
X64177576Y-31269782D01*
X64128604Y-31328147D01*
X64124574Y-31334275D01*
X64124523Y-31334242D01*
X64120405Y-31340706D01*
X64120455Y-31340737D01*
X64116605Y-31346978D01*
X64084394Y-31416054D01*
X64082798Y-31419351D01*
X64048605Y-31487434D01*
X64046095Y-31494332D01*
X64046039Y-31494311D01*
X64043525Y-31501545D01*
X64043582Y-31501564D01*
X64041273Y-31508529D01*
X64025865Y-31583148D01*
X64025073Y-31586722D01*
X64007500Y-31660874D01*
X64006648Y-31668167D01*
X64006587Y-31668159D01*
X64005809Y-31675773D01*
X64005871Y-31675779D01*
X64005231Y-31683090D01*
X64007447Y-31759254D01*
X64007500Y-31762918D01*
X64007500Y-33048056D01*
X63987498Y-33116177D01*
X63952057Y-33152448D01*
X63886998Y-33196420D01*
X63886997Y-33196421D01*
X63714879Y-33361381D01*
X63573119Y-33553054D01*
X63465794Y-33765924D01*
X63465789Y-33765936D01*
X63395983Y-33993878D01*
X63395981Y-33993887D01*
X63365701Y-34230345D01*
X63365701Y-34230353D01*
X56009230Y-34230353D01*
X56004180Y-34111467D01*
X55953953Y-33878416D01*
X55908749Y-33765924D01*
X55865064Y-33657210D01*
X55740069Y-33454205D01*
X55582564Y-33275245D01*
X55419342Y-33143452D01*
X55378910Y-33085097D01*
X55372500Y-33045422D01*
X55372500Y-31526314D01*
X55392502Y-31458193D01*
X55446158Y-31411700D01*
X55458863Y-31406711D01*
X55472737Y-31402114D01*
X55482287Y-31396224D01*
X55507972Y-31380381D01*
X55623651Y-31309030D01*
X55749030Y-31183651D01*
X55842114Y-31032737D01*
X55897887Y-30864425D01*
X55905088Y-30793942D01*
X55908500Y-30760552D01*
X55908500Y-27659447D01*
X55897887Y-27555575D01*
X55852672Y-27419125D01*
X55842114Y-27387262D01*
X55757379Y-27249885D01*
X55749030Y-27236349D01*
X55749029Y-27236348D01*
X55749024Y-27236342D01*
X55623657Y-27110975D01*
X55623651Y-27110970D01*
X55472737Y-27017885D01*
X55304425Y-26962113D01*
X55304424Y-26962112D01*
X55200552Y-26951500D01*
X55200544Y-26951500D01*
X52099456Y-26951500D01*
X52099448Y-26951500D01*
X51995575Y-26962112D01*
X51995574Y-26962113D01*
X51827262Y-27017885D01*
X51676348Y-27110970D01*
X51676342Y-27110975D01*
X51550975Y-27236342D01*
X51550968Y-27236351D01*
X51467519Y-27371646D01*
X51414734Y-27419125D01*
X51360278Y-27431500D01*
X48969722Y-27431500D01*
X48901601Y-27411498D01*
X48862481Y-27371646D01*
X48779031Y-27236351D01*
X48779030Y-27236349D01*
X48779027Y-27236346D01*
X48779024Y-27236342D01*
X48653657Y-27110975D01*
X48653651Y-27110970D01*
X48502737Y-27017885D01*
X48334425Y-26962113D01*
X48334424Y-26962112D01*
X48230552Y-26951500D01*
X48230544Y-26951500D01*
X45129456Y-26951500D01*
X45129448Y-26951500D01*
X45025575Y-26962112D01*
X45025574Y-26962113D01*
X44857262Y-27017885D01*
X44706348Y-27110970D01*
X44706342Y-27110975D01*
X44580975Y-27236342D01*
X44580970Y-27236348D01*
X44487885Y-27387262D01*
X44432113Y-27555574D01*
X44432112Y-27555575D01*
X44421500Y-27659447D01*
X44421500Y-30760552D01*
X44421499Y-30760552D01*
X43198539Y-30760552D01*
X43193566Y-30694184D01*
X43187704Y-30668503D01*
X43185340Y-30654590D01*
X43182393Y-30628428D01*
X43157109Y-30534071D01*
X43155988Y-30529548D01*
X43151729Y-30510889D01*
X43134251Y-30434307D01*
X43124629Y-30409792D01*
X43120212Y-30396368D01*
X43113403Y-30370955D01*
X43113402Y-30370951D01*
X43074335Y-30281410D01*
X43072566Y-30277138D01*
X43036865Y-30186173D01*
X43023701Y-30163373D01*
X43017333Y-30150758D01*
X43006807Y-30126631D01*
X42975088Y-30076151D01*
X42954824Y-30043901D01*
X42952425Y-30039919D01*
X42903585Y-29955325D01*
X42903584Y-29955323D01*
X42903581Y-29955319D01*
X42887177Y-29934750D01*
X42878998Y-29923224D01*
X42876030Y-29918500D01*
X42864989Y-29900928D01*
X42801271Y-29826886D01*
X42798281Y-29823277D01*
X42737389Y-29746921D01*
X42737384Y-29746917D01*
X42665797Y-29680494D01*
X42662403Y-29677224D01*
X41957027Y-28971848D01*
X41923001Y-28909536D01*
X41922543Y-28907335D01*
X41919970Y-28894400D01*
X41866224Y-28624203D01*
X41771059Y-28343855D01*
X41640115Y-28078327D01*
X41535784Y-27922185D01*
X41475640Y-27832172D01*
X41475638Y-27832170D01*
X41475633Y-27832162D01*
X41280427Y-27609573D01*
X41057838Y-27414367D01*
X41057830Y-27414361D01*
X41057827Y-27414359D01*
X40811670Y-27249883D01*
X40546151Y-27118944D01*
X40546145Y-27118941D01*
X40546140Y-27118939D01*
X40546137Y-27118938D01*
X40265805Y-27023778D01*
X40265799Y-27023776D01*
X40265797Y-27023776D01*
X40168566Y-27004435D01*
X39975435Y-26966018D01*
X39975421Y-26966016D01*
X39680003Y-26946654D01*
X39679997Y-26946654D01*
X39384578Y-26966016D01*
X39384564Y-26966018D01*
X39142818Y-27014105D01*
X39094203Y-27023776D01*
X39094201Y-27023776D01*
X39094194Y-27023778D01*
X38813862Y-27118938D01*
X38813848Y-27118944D01*
X38548329Y-27249883D01*
X38302172Y-27414359D01*
X38302165Y-27414364D01*
X38302162Y-27414367D01*
X38079573Y-27609573D01*
X37884367Y-27832162D01*
X37884364Y-27832165D01*
X37884359Y-27832172D01*
X37719883Y-28078329D01*
X37588944Y-28343848D01*
X37588938Y-28343862D01*
X37493778Y-28624194D01*
X37493776Y-28624204D01*
X37436018Y-28914564D01*
X37436016Y-28914578D01*
X37416654Y-29209996D01*
X37416654Y-29210003D01*
X37436016Y-29505421D01*
X37436018Y-29505435D01*
X37493776Y-29795795D01*
X37493778Y-29795805D01*
X37588938Y-30076137D01*
X37588944Y-30076151D01*
X37719883Y-30341670D01*
X37884359Y-30587827D01*
X37884361Y-30587830D01*
X37884367Y-30587838D01*
X38079573Y-30810427D01*
X38302162Y-31005633D01*
X38302170Y-31005638D01*
X38302172Y-31005640D01*
X38421840Y-31085599D01*
X38548327Y-31170115D01*
X38813855Y-31301059D01*
X39094203Y-31396224D01*
X39377335Y-31452543D01*
X39440244Y-31485451D01*
X39441848Y-31487027D01*
X39614594Y-31659773D01*
X39648620Y-31722085D01*
X39651499Y-31748868D01*
X39651499Y-36314389D01*
X39651411Y-36319099D01*
X39647760Y-36416686D01*
X39658691Y-36513712D01*
X39659131Y-36518400D01*
X39660982Y-36543091D01*
X39666432Y-36615814D01*
X39667988Y-36622631D01*
X39672293Y-36641496D01*
X39674657Y-36655414D01*
X39677605Y-36681571D01*
X39702877Y-36775886D01*
X39704011Y-36780459D01*
X39725746Y-36875690D01*
X39735367Y-36900202D01*
X39739783Y-36913621D01*
X39746597Y-36939050D01*
X39746600Y-36939058D01*
X39785640Y-37028541D01*
X39787442Y-37032891D01*
X39808523Y-37086601D01*
X39823133Y-37123825D01*
X39824730Y-37126591D01*
X39836291Y-37146616D01*
X39842658Y-37159228D01*
X39849428Y-37174745D01*
X39853190Y-37183367D01*
X39904555Y-37265114D01*
X39905160Y-37266076D01*
X39907592Y-37270113D01*
X39956411Y-37354671D01*
X39956415Y-37354677D01*
X39972823Y-37375251D01*
X39980997Y-37386771D01*
X39995009Y-37409070D01*
X39995012Y-37409073D01*
X39995016Y-37409079D01*
X40058709Y-37483091D01*
X40061715Y-37486718D01*
X40122613Y-37563081D01*
X40194199Y-37629502D01*
X40197593Y-37632772D01*
X42567225Y-40002404D01*
X42570494Y-40005797D01*
X42604285Y-40042215D01*
X42635957Y-40105756D01*
X42628248Y-40176333D01*
X42601016Y-40217012D01*
X36573435Y-46244595D01*
X36511123Y-46278621D01*
X36484340Y-46281500D01*
X34635660Y-46281500D01*
X34567539Y-46261498D01*
X34546565Y-46244595D01*
X33765405Y-45463435D01*
X33731379Y-45401123D01*
X33728500Y-45374340D01*
X33728500Y-41925659D01*
X33748502Y-41857538D01*
X33765400Y-41836569D01*
X38583156Y-37018812D01*
X38588663Y-37013627D01*
X38634215Y-36973273D01*
X38668780Y-36923195D01*
X38673235Y-36917140D01*
X38710775Y-36869226D01*
X38714961Y-36859922D01*
X38726161Y-36840066D01*
X38731954Y-36831675D01*
X38753522Y-36774802D01*
X38756423Y-36767797D01*
X38781389Y-36712329D01*
X38783226Y-36702303D01*
X38789351Y-36680330D01*
X38792965Y-36670801D01*
X38800299Y-36610396D01*
X38801432Y-36602950D01*
X38812402Y-36543092D01*
X38808730Y-36482383D01*
X38808500Y-36474776D01*
X38808500Y-33045222D01*
X38808730Y-33037615D01*
X38809386Y-33026774D01*
X38812402Y-32976908D01*
X38801434Y-32917059D01*
X38800298Y-32909597D01*
X38792965Y-32849199D01*
X38792964Y-32849197D01*
X38792964Y-32849195D01*
X38789351Y-32839668D01*
X38783227Y-32817702D01*
X38781389Y-32807671D01*
X38756414Y-32752182D01*
X38753520Y-32745192D01*
X38731954Y-32688325D01*
X38726161Y-32679933D01*
X38714958Y-32660070D01*
X38710775Y-32650775D01*
X38673263Y-32602895D01*
X38668781Y-32596804D01*
X38634215Y-32546727D01*
X38634212Y-32546724D01*
X38588682Y-32506387D01*
X38583141Y-32501171D01*
X34808827Y-28726857D01*
X34803610Y-28721316D01*
X34763271Y-28675783D01*
X34713220Y-28641234D01*
X34707093Y-28636726D01*
X34659226Y-28599225D01*
X34659222Y-28599223D01*
X34649919Y-28595035D01*
X34630069Y-28583840D01*
X34621675Y-28578046D01*
X34594203Y-28567627D01*
X34564821Y-28556483D01*
X34557794Y-28553572D01*
X34502332Y-28528612D01*
X34502330Y-28528611D01*
X34502329Y-28528611D01*
X34492286Y-28526770D01*
X34470336Y-28520650D01*
X34460801Y-28517035D01*
X34460800Y-28517034D01*
X34460798Y-28517034D01*
X34460794Y-28517033D01*
X34400433Y-28509704D01*
X34392914Y-28508559D01*
X34354388Y-28501500D01*
X34333094Y-28497598D01*
X34333093Y-28497598D01*
X34282132Y-28500680D01*
X34272390Y-28501270D01*
X34264782Y-28501500D01*
X33234500Y-28501500D01*
X33166379Y-28481498D01*
X33119886Y-28427842D01*
X33108500Y-28375500D01*
X33108500Y-28311367D01*
X33108499Y-28311350D01*
X33101990Y-28250803D01*
X33101988Y-28250795D01*
X33050889Y-28113797D01*
X33050887Y-28113792D01*
X32963261Y-27996738D01*
X32846207Y-27909112D01*
X32846202Y-27909110D01*
X32709204Y-27858011D01*
X32709196Y-27858009D01*
X32648649Y-27851500D01*
X32648638Y-27851500D01*
X32414768Y-27851500D01*
X32364154Y-27840887D01*
X32238884Y-27785938D01*
X32238877Y-27785935D01*
X31997828Y-27724893D01*
X31997823Y-27724892D01*
X31997821Y-27724892D01*
X31881140Y-27715223D01*
X31812070Y-27709500D01*
X31812067Y-27709500D01*
X31687933Y-27709500D01*
X31687929Y-27709500D01*
X31595835Y-27717131D01*
X31502179Y-27724892D01*
X31502177Y-27724892D01*
X31502171Y-27724893D01*
X31261122Y-27785935D01*
X31261115Y-27785938D01*
X31135846Y-27840887D01*
X31085232Y-27851500D01*
X30851350Y-27851500D01*
X30790803Y-27858009D01*
X30790795Y-27858011D01*
X30653797Y-27909110D01*
X30653792Y-27909112D01*
X30536738Y-27996738D01*
X30449112Y-28113792D01*
X30449110Y-28113797D01*
X30398011Y-28250795D01*
X30398009Y-28250803D01*
X30391500Y-28311350D01*
X30391500Y-28535719D01*
X30376315Y-28595686D01*
X30371172Y-28605188D01*
X30371170Y-28605192D01*
X30290430Y-28840381D01*
X30290429Y-28840386D01*
X30249500Y-29085665D01*
X30249500Y-29334335D01*
X30278051Y-29505435D01*
X30290428Y-29579609D01*
X30290430Y-29579618D01*
X30371170Y-29814806D01*
X30371172Y-29814811D01*
X30376312Y-29824307D01*
X30391500Y-29884280D01*
X30391500Y-30108649D01*
X30398009Y-30169196D01*
X30398011Y-30169204D01*
X30449110Y-30306202D01*
X30449112Y-30306207D01*
X30536738Y-30423261D01*
X30657469Y-30513639D01*
X30700016Y-30570475D01*
X30705080Y-30641290D01*
X30671055Y-30703603D01*
X30667298Y-30707208D01*
X30642265Y-30730252D01*
X30489526Y-30926490D01*
X30489525Y-30926491D01*
X30371171Y-31145190D01*
X30371170Y-31145192D01*
X30290430Y-31380381D01*
X30290428Y-31380390D01*
X30285204Y-31411700D01*
X30249500Y-31625665D01*
X30249500Y-31874335D01*
X30290164Y-32118026D01*
X30290431Y-32119625D01*
X30290633Y-32120423D01*
X30290620Y-32120759D01*
X30291287Y-32124755D01*
X30290464Y-32124892D01*
X30287964Y-32191369D01*
X30257583Y-32240445D01*
X29566856Y-32931172D01*
X29561316Y-32936388D01*
X29515784Y-32976726D01*
X29481237Y-33026774D01*
X29476731Y-33032898D01*
X29439228Y-33080769D01*
X29439222Y-33080779D01*
X29435035Y-33090080D01*
X29423846Y-33109921D01*
X29418045Y-33118326D01*
X29396482Y-33175183D01*
X29393570Y-33182211D01*
X29368613Y-33237665D01*
X29368609Y-33237678D01*
X29366770Y-33247711D01*
X29360651Y-33269661D01*
X29357034Y-33279199D01*
X29349705Y-33339554D01*
X29348561Y-33347071D01*
X29337598Y-33406906D01*
X29341270Y-33467608D01*
X29341500Y-33475216D01*
X29341500Y-35104782D01*
X29341270Y-35112390D01*
X29337598Y-35173092D01*
X29348559Y-35232910D01*
X29349704Y-35240433D01*
X29357033Y-35300794D01*
X29357034Y-35300798D01*
X29357034Y-35300800D01*
X29357035Y-35300801D01*
X29360426Y-35309744D01*
X29360650Y-35310333D01*
X29366771Y-35332289D01*
X29368612Y-35342332D01*
X29393572Y-35397794D01*
X29396483Y-35404821D01*
X29404794Y-35426734D01*
X29418046Y-35461675D01*
X29421928Y-35467299D01*
X29423840Y-35470069D01*
X29435035Y-35489919D01*
X29439223Y-35499222D01*
X29439225Y-35499226D01*
X29476726Y-35547093D01*
X29481234Y-35553220D01*
X29515783Y-35603271D01*
X29515784Y-35603272D01*
X29515785Y-35603273D01*
X29561316Y-35643610D01*
X29566857Y-35648827D01*
X30257583Y-36339553D01*
X30291609Y-36401865D01*
X30290710Y-36455148D01*
X30291287Y-36455245D01*
X30290643Y-36459099D01*
X30290636Y-36459565D01*
X30290430Y-36460374D01*
X30280748Y-36518400D01*
X30249500Y-36705665D01*
X30249500Y-36954335D01*
X30287128Y-37179831D01*
X30290431Y-37199625D01*
X30290633Y-37200423D01*
X30290620Y-37200759D01*
X30291287Y-37204755D01*
X30290464Y-37204892D01*
X30287964Y-37271369D01*
X30257583Y-37320445D01*
X28726856Y-38851172D01*
X28721316Y-38856388D01*
X28675784Y-38896726D01*
X28641237Y-38946774D01*
X28636731Y-38952898D01*
X28599228Y-39000769D01*
X28599222Y-39000779D01*
X28595035Y-39010080D01*
X28583846Y-39029921D01*
X28578045Y-39038326D01*
X28556482Y-39095183D01*
X28553570Y-39102211D01*
X28528613Y-39157665D01*
X28528609Y-39157678D01*
X28526770Y-39167711D01*
X28520651Y-39189661D01*
X28517034Y-39199199D01*
X28509705Y-39259554D01*
X28508561Y-39267071D01*
X28497598Y-39326906D01*
X28501270Y-39387608D01*
X28501500Y-39395216D01*
X28501500Y-52989782D01*
X28501270Y-52997390D01*
X28497598Y-53058092D01*
X26670500Y-53058092D01*
X26670500Y-25526500D01*
X26690502Y-25458379D01*
X26744158Y-25411886D01*
X26796500Y-25400500D01*
X87503500Y-25400500D01*
X87571621Y-25420502D01*
G37*
%TD.AperFunction*%
%TD*%
M02*
